<?xml version="1.0" encoding="UTF-8"?> <svg xmlns="http://www.w3.org/2000/svg" width="100" height="28" viewBox="0 0 100 28" fill="none"><path d="M10.6446 8.84856H10.5889C10.2061 8.38821 9.66801 7.96436 8.97465 7.57701C8.28129 7.18966 7.43494 6.99631 6.43559 6.99697C5.51418 6.98295 4.60173 7.18132 3.76762 7.57701C2.99036 7.95333 2.30051 8.49117 1.74321 9.15535C1.17655 9.8376 0.740426 10.6203 0.457074 11.4637C0.15319 12.3467 -0.00131395 13.2751 4.30293e-05 14.21C-0.00289711 15.1485 0.144854 16.0813 0.437543 16.9721C0.711142 17.8243 1.14189 18.6166 1.70707 19.307C2.26783 19.9832 2.96196 20.5338 3.74516 20.9238C4.59711 21.3393 5.53365 21.5471 6.47953 21.5305C7.37199 21.5347 8.25458 21.3418 9.06547 20.9653C9.83374 20.6239 10.4855 20.0616 10.9395 19.3485H10.9942V21.1448H15.125V0H10.6446V8.84856ZM10.6026 15.5358C10.4532 15.9512 10.2305 16.3359 9.94535 16.6712C9.65943 17.0046 9.31049 17.2769 8.91898 17.4722C8.49301 17.68 8.02477 17.784 7.5518 17.776C7.06804 17.7864 6.58865 17.6816 6.15238 17.4702C5.76495 17.2774 5.42142 17.0053 5.1436 16.6712C4.86636 16.333 4.65735 15.9433 4.52836 15.5239C4.39296 15.1 4.32377 14.6574 4.32328 14.2119C4.32311 13.7707 4.39233 13.3321 4.52836 12.9128C4.65578 12.4995 4.8656 12.1169 5.1449 11.7887C5.42419 11.4604 5.76706 11.1934 6.15238 11.004C6.58754 10.7935 7.06552 10.6891 7.54789 10.6992C8.02094 10.6915 8.48919 10.7959 8.91508 11.004C9.30679 11.1989 9.6558 11.4713 9.94145 11.805C10.2261 12.1397 10.4484 12.5237 10.5977 12.9384C10.9089 13.7757 10.9089 14.6985 10.5977 15.5358H10.6026ZM18.4629 21.1458H22.9493V7.38366H18.4619L18.4629 21.1458ZM34.3418 6.99697C33.5535 6.98285 32.7804 7.2162 32.1289 7.6648C31.4973 8.10153 30.9883 8.6959 30.6514 9.39013H30.5967V7.39846H26.2696V21.1458H30.7617V14.0896C30.7704 13.7621 30.8256 13.4375 30.9258 13.1259C31.0372 12.7548 31.2182 12.4088 31.459 12.1068C31.7295 11.7748 32.065 11.5028 32.4444 11.3078C32.8545 11.0868 33.3607 10.9764 33.9629 10.9764C34.1446 10.9764 34.3321 10.9852 34.5235 11.004C34.7215 11.0241 34.9175 11.0611 35.1094 11.1145L35.3047 7.10647C35.1661 7.065 35.0238 7.03758 34.8799 7.02459C34.7011 7.00611 34.5215 6.9969 34.3418 6.99697ZM48.6485 8.93142C48.0443 8.28393 47.3065 7.77874 46.4873 7.45173C45.6074 7.10282 44.6689 6.92897 43.7237 6.93975C42.7319 6.93133 41.7472 7.10998 40.8203 7.46653C39.9555 7.79861 39.1651 8.30166 38.4951 8.94622C37.8222 9.60384 37.2903 10.3943 36.9326 11.2683C36.5384 12.238 36.3431 13.2783 36.3584 14.3264C36.3584 15.4878 36.5537 16.5196 36.9444 17.4219C37.3124 18.2911 37.8632 19.069 38.5586 19.7016C39.256 20.3272 40.0697 20.8064 40.9522 21.1113C41.885 21.4367 42.8657 21.6001 43.8526 21.5946C45.238 21.5946 46.4554 21.3411 47.5049 20.8341C48.5253 20.3519 49.3993 19.6025 50.0362 18.6638L46.9248 16.6712C46.6052 17.1031 46.1938 17.4571 45.7207 17.707C45.2285 17.9746 44.6266 18.1085 43.9151 18.1085C43.1308 18.1078 42.3678 17.8506 41.7403 17.3755C41.4461 17.1525 41.1954 16.8762 41.001 16.5607C40.8078 16.2421 40.6908 15.8824 40.6592 15.5101H50.5362C50.555 15.3355 50.5641 15.16 50.5635 14.9843V14.4319C50.5635 13.2541 50.3949 12.2042 50.0576 11.2822C49.7501 10.4104 49.2707 9.61068 48.6485 8.93142ZM40.6592 12.6898C40.6781 12.3376 40.7714 11.9936 40.9326 11.6807C41.0962 11.3599 41.3194 11.0739 41.5899 10.8383C41.8728 10.593 42.1969 10.4009 42.5469 10.271C42.9322 10.1288 43.3398 10.0579 43.75 10.0619C44.6439 10.0619 45.3141 10.32 45.7608 10.8363C46.2062 11.3467 46.4457 12.0075 46.4317 12.6879L40.6592 12.6898ZM57.8692 11.7912C58.1425 11.4692 58.4773 11.2062 58.8535 11.0178C59.2537 10.8203 59.6943 10.7209 60.1397 10.7278C60.6031 10.7296 61.0606 10.8333 61.4805 11.0316C61.8866 11.2109 62.2432 11.4876 62.5195 11.8375L65.1192 8.79825C64.8249 8.50652 64.497 8.2515 64.1426 8.03867C63.7543 7.8011 63.3418 7.60663 62.9121 7.45863C62.4591 7.29802 61.9949 7.17141 61.5235 7.07983C61.0405 6.98747 60.5501 6.94123 60.0586 6.94173C59.0412 6.93464 58.0304 7.10793 57.0723 7.4537C56.1734 7.77293 55.3467 8.2703 54.6406 8.91662C53.9458 9.56316 53.3926 10.3495 53.0166 11.2249C52.6107 12.1849 52.409 13.2204 52.4248 14.2642C52.4248 15.4079 52.6221 16.4305 53.0166 17.3321C53.3916 18.2076 53.945 18.9934 54.6406 19.6385C55.3449 20.2848 56.1723 20.7793 57.0723 21.0915C58.0419 21.4273 59.061 21.5941 60.086 21.5848C61.0539 21.5909 62.0159 21.4321 62.9317 21.1152C63.8255 20.8015 64.555 20.3685 65.1201 19.816L62.6309 16.7481C62.3413 17.0914 61.9689 17.3533 61.5498 17.5087C61.1184 17.6804 60.659 17.7694 60.1953 17.7711C59.7382 17.7787 59.2851 17.6844 58.8682 17.4949C58.4818 17.3159 58.1371 17.0568 57.8565 16.7343C57.5705 16.4083 57.3518 16.028 57.2129 15.6157C57.0647 15.1799 56.9908 14.722 56.9942 14.2613C56.9915 13.8007 57.0702 13.3434 57.2266 12.9108C57.3727 12.5017 57.5903 12.1225 57.8692 11.7912ZM72.5908 3.76335H68.1856V7.38366H66.0244V10.7524H68.2139V16.5725C68.2051 17.2504 68.2869 17.9263 68.457 18.582C68.6061 19.1542 68.882 19.6848 69.2637 20.1337C69.6685 20.5888 70.1819 20.9317 70.7549 21.13C71.3753 21.3621 72.1413 21.4779 73.0527 21.4772C73.5297 21.477 74.0057 21.4354 74.4756 21.3529C74.875 21.2888 75.2686 21.1918 75.6524 21.0629L75.5977 17.7474C75.4007 17.8296 75.1938 17.885 74.9824 17.9122C74.7514 17.9481 74.518 17.9666 74.2842 17.9674C73.6455 17.9674 73.2031 17.8056 72.957 17.4821C72.7109 17.1585 72.5879 16.6732 72.5879 16.0261V10.7524H75.7891V7.38366H72.5908V3.76335ZM78.1572 21.1458H82.7266V0H78.1582L78.1572 21.1458ZM95.2393 7.38366L92.5303 16.2273H92.4482L89.4111 7.38366H84.4307L90.1221 20.9248L89.6846 22.0573C89.4658 22.6492 89.2012 23.1056 88.8906 23.4265C88.5801 23.7474 88.0785 23.9082 87.3857 23.9089C87.1427 23.9068 86.9003 23.8837 86.6611 23.8398C86.4152 23.798 86.1727 23.738 85.9355 23.6603L85.4473 27.4739C85.8291 27.5762 86.2178 27.65 86.6104 27.6949C87.0416 27.7492 87.4756 27.7768 87.9102 27.7778C88.6633 27.7917 89.4142 27.6893 90.1367 27.4739C90.7373 27.2868 91.2952 26.9814 91.7783 26.5753C92.2545 26.166 92.6612 25.6808 92.9824 25.139C93.343 24.5272 93.6495 23.8845 93.8984 23.2183L100 7.38366H95.2393Z" fill="#FFCC00"></path><path d="M20.9053 5.50445C22.4106 5.50445 23.6309 4.27224 23.6309 2.75223C23.6309 1.23221 22.4106 0 20.9053 0C19.4 0 18.1797 1.23221 18.1797 2.75223C18.1797 4.27224 19.4 5.50445 20.9053 5.50445Z" fill="#FFCC00"></path></svg> 
